# xmcd
#
# Track frame offsets: 
#        150
#        15120
#        26660
#        39178
#        48443
#        60645
#        73665
#        88093
#        99890
#        111995
#
# Disc length: 1690 seconds
#
# Revision: 3
# Processed by: cddbd v1.5.2PL0 Copyright (c) Steve Scherf et al.
# Submitted via: ExactAudioCopyFreeDBPlugin 1.0
#
DISCID=7306980a
DTITLE=Bobby Womack - Bobby Womack:  The Collection [BCM Records] [box
DTITLE=set]
DYEAR=1990
DGENRE=Soul
TTITLE0=Don't Make This the Last Date for You and Me
TTITLE1=Behind Closed Doors
TTITLE2=Bouquet of Roses
TTITLE3=Tired of Living in the Country
TTITLE4=Tarnished Rings
TTITLE5=Big Bayou
TTITLE6=Song of the Mockingbird
TTITLE7=I'd Be Ahead If I Could Quit While I'm Behind
TTITLE8=You
TTITLE9=I Take It on Home
EXTD=
EXTT0=
EXTT1=
EXTT2=
EXTT3=
EXTT4=
EXTT5=
EXTT6=
EXTT7=
EXTT8=
EXTT9=
PLAYORDER=
